# xmcd
#
# Track frame offsets: 
#        150
#        12926
#        24851
#        33994
#        45851
#        55566
#        64810
#        75232
#        88584
#        100777
#        111033
#        119910
#
# Disc length: 1745 seconds
#
# Revision: 0
# Processed by: cddbd v1.5.2PL0 Copyright (c) Steve Scherf et al.
# Submitted via: ExactAudioCopy v1.3
#
DISCID=8206cf0c
DTITLE=Jimmy Dean - Everybody's Favorite
DYEAR=2013
DGENRE=Country
TTITLE0=Mile Long Train
TTITLE1=I Really Don't Want to Know
TTITLE2=Be Honest with You
TTITLE3=(Remember Me) I'm the One Who Loves You
TTITLE4=Time Changes Everything
TTITLE5=Sweet Georgia Brown
TTITLE6=This Ole House
TTITLE7=Tears on My Pillow
TTITLE8=Philosophizin'
TTITLE9=No One Will Ever Know
TTITLE10=Hang Your Head in Shame
TTITLE11=Chattanoogie Shoe Shine Boy
EXTD=
EXTT0=
EXTT1=
EXTT2=
EXTT3=
EXTT4=
EXTT5=
EXTT6=
EXTT7=
EXTT8=
EXTT9=
EXTT10=
EXTT11=
PLAYORDER=
